<?xml version="1.0" standalone="no"?><!DOCTYPE svg PUBLIC "-//W3C//DTD SVG 1.1//EN" "http://www.w3.org/Graphics/SVG/1.1/DTD/svg11.dtd"><svg t="1562209246987" class="icon" viewBox="0 0 1024 1024" version="1.1" xmlns="http://www.w3.org/2000/svg" p-id="1131" width="128" height="128" xmlns:xlink="http://www.w3.org/1999/xlink"><defs><style type="text/css"></style></defs><path d="M512 512m-501.76 0a501.76 501.76 0 1 0 1003.52 0 501.76 501.76 0 1 0-1003.52 0Z" fill="#FFECE9" p-id="1132"></path><path d="M677.4784 341.1968V299.008l-45.056 39.5264-49.3568 43.4176v-22.3232c0-80.0768-24.1664-159.3344-70.8608-233.0624-46.6944 73.728-70.8608 152.9856-70.8608 233.0624v22.3232L346.5216 299.008V445.0304c0 77.0048 65.9456 139.4688 147.2512 139.4688h36.2496c81.3056 0 147.2512-62.464 147.2512-139.4688v-103.8336z" fill="#FF8939" p-id="1133"></path><path d="M582.8608 357.1712c-0.6144-79.2576-24.576-157.696-70.8608-230.4-46.2848 72.9088-70.2464 151.1424-70.8608 230.4h141.7216z" fill="#FF3E63" p-id="1134"></path><path d="M551.5264 299.4176c-9.8304 14.1312-16.384 28.8768-19.6608 43.8272-3.4816-15.1552-10.0352-29.696-19.6608-43.8272-9.8304 14.1312-16.384 28.8768-19.6608 43.8272-3.4816-15.1552-10.0352-29.696-19.6608-43.8272-14.7456 21.2992-22.3232 44.2368-22.3232 67.3792h123.904c-0.6144-23.1424-8.192-46.08-22.9376-67.3792z" fill="#FF8939" p-id="1135"></path><path d="M530.2272 594.7392h-36.2496c-86.8352 0-157.4912-67.1744-157.4912-149.7088V393.216c0-5.7344 4.5056-10.24 10.24-10.24s10.24 4.5056 10.24 10.24v51.8144c0 71.2704 61.44 129.2288 137.0112 129.2288h36.2496c75.5712 0 137.0112-57.9584 137.0112-129.2288v-123.2896l-77.6192 68.1984a10.40384 10.40384 0 0 1-11.0592 1.6384c-3.6864-1.6384-5.9392-5.3248-5.9392-9.4208v-22.3232c0-73.5232-20.48-145.2032-60.6208-213.4016-3.2768 5.7344-6.5536 11.264-9.6256 16.9984-2.6624 4.9152-8.8064 6.7584-13.9264 4.096-4.9152-2.6624-6.7584-8.8064-4.096-13.9264 5.7344-10.8544 12.288-21.7088 19.0464-32.3584 1.8432-2.8672 5.12-4.7104 8.6016-4.7104s6.7584 1.8432 8.6016 4.7104c48.128 75.5712 72.4992 155.8528 72.4992 238.1824l77.6192-68.1984c3.072-2.6624 7.3728-3.2768 11.0592-1.6384 3.6864 1.6384 5.9392 5.3248 5.9392 9.4208v146.0224c0 82.5344-70.656 149.7088-157.4912 149.7088z" fill="#1C1D21" p-id="1136"></path><path d="M441.1392 392.3968c-2.4576 0-4.9152-0.8192-6.7584-2.4576l-77.6192-68.1984v24.7808c0 5.7344-4.5056 10.24-10.24 10.24s-10.24-4.5056-10.24-10.24V299.008c0-4.096 2.2528-7.5776 5.9392-9.4208 3.6864-1.6384 7.9872-1.024 11.0592 1.6384l77.6192 68.1984c0-29.9008 3.4816-60.2112 10.0352-89.9072 2.048-9.4208 4.5056-19.0464 7.3728-28.2624 1.6384-5.3248 7.3728-8.6016 12.6976-6.9632 5.3248 1.6384 8.6016 7.3728 6.9632 12.6976-2.6624 9.0112-4.9152 18.0224-6.9632 27.0336-6.3488 28.2624-9.4208 57.1392-9.4208 85.8112v22.3232c0 4.096-2.2528 7.5776-5.9392 9.4208-1.6384 0.4096-3.072 0.8192-4.5056 0.8192zM472.6784 212.5824c-1.2288 0-2.4576-0.2048-3.6864-0.6144-5.3248-2.048-7.7824-7.9872-5.7344-13.312 1.4336-3.4816 3.072-5.5296 4.9152-6.7584-1.8432 1.024-3.072 2.6624-3.8912 4.3008 0-0.2048 0.2048-0.6144 0.6144-1.2288 2.2528-5.12 8.192-7.5776 13.312-5.5296 5.12 2.2528 7.5776 8.192 5.5296 13.312-0.2048 0.6144-0.6144 1.2288-0.8192 1.6384l-0.6144 1.4336c-1.6384 4.3008-5.5296 6.7584-9.6256 6.7584z" fill="#1C1D21" p-id="1137"></path><path d="M583.68 515.4816l55.296-70.0416-16.384-14.5408-88.064 74.1376-7.168-123.0848h-30.72l-7.168 123.0848-88.064-74.1376-16.384 14.5408 55.296 70.0416c29.0816 36.6592 43.6224 82.944 40.96 129.6384l-11.8784 206.2336h85.1968L542.72 645.12c-2.6624-46.6944 11.8784-92.9792 40.96-129.6384z" fill="#AA4D2D" p-id="1138"></path><path d="M554.5984 861.5936h-85.1968c-2.8672 0-5.5296-1.2288-7.3728-3.2768-1.8432-2.048-2.8672-4.7104-2.8672-7.5776l11.8784-206.2336c2.6624-44.2368-11.264-87.8592-38.7072-122.6752l-55.296-70.0416c-3.2768-4.3008-2.8672-10.4448 1.2288-13.9264l16.384-14.5408c3.8912-3.2768 9.4208-3.4816 13.312-0.2048l72.2944 61.0304 5.9392-102.6048c0.4096-5.3248 4.7104-9.6256 10.24-9.6256h30.72c5.3248 0 9.8304 4.3008 10.24 9.6256l5.9392 102.6048 72.2944-61.0304c3.8912-3.2768 9.6256-3.2768 13.312 0.2048l16.384 14.5408c4.096 3.6864 4.5056 9.8304 1.2288 13.9264l-55.296 70.0416c-27.4432 34.816-41.3696 78.4384-38.7072 122.6752l11.8784 206.2336c0.2048 2.8672-0.8192 5.5296-2.8672 7.5776-1.4336 2.2528-4.096 3.2768-6.9632 3.2768z m-74.3424-20.48h63.488l-11.264-195.3792c-2.8672-49.3568 12.4928-97.8944 43.2128-136.6016l49.3568-62.2592-2.4576-2.2528-81.3056 68.4032c-2.8672 2.4576-7.168 3.072-10.6496 1.6384-3.4816-1.4336-5.9392-4.9152-6.144-8.8064l-6.5536-113.4592h-11.4688l-6.5536 113.4592c-0.2048 3.8912-2.6624 7.3728-6.144 8.8064-3.4816 1.4336-7.7824 1.024-10.6496-1.6384l-81.3056-68.4032-2.4576 2.2528 49.3568 62.2592c30.72 38.7072 45.8752 87.2448 43.2128 136.6016l-11.6736 195.3792z m103.424-325.632z" fill="#1C1D21" p-id="1139"></path><path d="M263.9872 791.3472v-16.7936l-35.4304 32.768v-8.8064c0-31.744-9.0112-63.0784-26.624-92.16-17.6128 29.0816-26.624 60.416-26.624 92.16v8.8064l-35.4304-32.768v65.3312c0 12.4928 10.24 22.7328 22.7328 22.7328h78.6432c12.4928 0 22.7328-10.24 22.7328-22.7328v-48.5376z" fill="#FF8939" p-id="1140"></path><path d="M388.096 791.3472v-16.7936l-35.4304 32.768v-8.8064c0-31.744-9.0112-63.0784-26.624-92.16-17.6128 29.0816-26.624 60.416-26.624 92.16v8.8064l-35.4304-32.768v65.3312c0 12.4928 10.24 22.7328 22.7328 22.7328h78.6432c12.4928 0 22.7328-10.24 22.7328-22.7328v-48.5376z" fill="#FF8939" p-id="1141"></path><path d="M512 791.3472v-16.7936l-35.4304 32.768v-8.8064c0-31.744-9.0112-63.0784-26.624-92.16-17.6128 29.0816-26.624 60.416-26.624 92.16v8.8064l-35.4304-32.768v65.3312c0 12.4928 10.24 22.7328 22.7328 22.7328h78.6432c12.4928 0 22.7328-10.24 22.7328-22.7328v-48.5376z" fill="#FF8939" p-id="1142"></path><path d="M635.904 791.3472v-16.7936l-35.4304 32.768v-8.8064c0-31.744-9.0112-63.0784-26.624-92.16-17.6128 29.0816-26.624 60.416-26.624 92.16v8.8064l-35.4304-32.768v65.3312c0 12.4928 10.24 22.7328 22.7328 22.7328h78.6432c12.4928 0 22.7328-10.24 22.7328-22.7328v-48.5376zM760.0128 791.3472v-16.7936l-35.4304 32.768v-8.8064c0-31.744-9.0112-63.0784-26.624-92.16-17.6128 29.0816-26.624 60.416-26.624 92.16v8.8064l-35.4304-32.768v65.3312c0 12.4928 10.24 22.7328 22.7328 22.7328H737.28c12.4928 0 22.7328-10.24 22.7328-22.7328v-48.5376z" fill="#FF8939" p-id="1143"></path><path d="M228.5568 806.912v-8.3968c0-31.744-9.0112-63.0784-26.624-92.16-17.6128 29.0816-26.624 60.416-26.624 92.16v8.3968h53.248zM352.6656 806.912v-8.3968c0-31.744-9.0112-63.0784-26.624-92.16-17.6128 29.0816-26.624 60.416-26.624 92.16v8.3968h53.248zM476.5696 806.912v-8.3968c0-31.744-9.0112-63.0784-26.624-92.16-17.6128 29.0816-26.624 60.416-26.624 92.16v8.3968h53.248zM600.4736 806.912v-8.3968c0-31.744-9.0112-63.0784-26.624-92.16-17.6128 29.0816-26.624 60.416-26.624 92.16v8.3968h53.248zM724.5824 806.912v-8.3968c0-31.744-9.0112-63.0784-26.624-92.16-17.6128 29.0816-26.624 60.416-26.624 92.16v8.3968h53.248z" fill="#FF3E63" p-id="1144"></path><path d="M512 1024c-136.8064 0-265.4208-53.248-362.0864-149.9136C53.248 777.4208 0 648.8064 0 512S53.248 246.5792 149.9136 149.9136C246.5792 53.248 375.1936 0 512 0s265.4208 53.248 362.0864 149.9136C970.752 246.5792 1024 375.1936 1024 512s-53.248 265.4208-149.9136 362.0864C777.4208 970.752 648.8064 1024 512 1024z m0-1003.52C241.0496 20.48 20.48 241.0496 20.48 512s220.5696 491.52 491.52 491.52 491.52-220.5696 491.52-491.52S782.9504 20.48 512 20.48z" fill="#1C1D21" p-id="1145"></path><path d="M241.4592 872.6528H162.816c-18.2272 0-32.9728-14.7456-32.9728-32.9728v-65.3312c0-4.096 2.4576-7.7824 6.144-9.4208 3.6864-1.6384 7.9872-0.8192 11.0592 1.8432L165.888 784.384c2.2528-28.8768 11.4688-56.7296 27.4432-83.3536 1.8432-3.072 5.12-4.9152 8.8064-4.9152 3.6864 0 6.9632 1.8432 8.8064 4.9152 15.9744 26.624 25.1904 54.4768 27.4432 83.3536l18.8416-17.408c3.072-2.8672 7.3728-3.4816 11.0592-1.8432 3.6864 1.6384 6.144 5.3248 6.144 9.4208v65.3312c-0.2048 18.0224-14.9504 32.768-32.9728 32.768z m-91.136-74.752V839.68c0 6.9632 5.5296 12.4928 12.4928 12.4928h78.6432c6.9632 0 12.4928-5.5296 12.4928-12.4928v-41.7792l-18.2272 16.9984c-3.072 2.8672-7.3728 3.4816-11.0592 1.8432-3.6864-1.6384-6.144-5.3248-6.144-9.4208v-8.8064c0-24.1664-5.5296-47.9232-16.384-70.656-10.8544 22.7328-16.384 46.4896-16.384 70.656v8.8064c0 4.096-2.4576 7.7824-6.144 9.4208-3.6864 1.6384-7.9872 0.8192-11.0592-1.8432l-18.2272-16.9984z" fill="#1C1D21" p-id="1146"></path><path d="M365.3632 872.6528H286.72c-18.2272 0-32.9728-14.7456-32.9728-32.9728v-65.3312c0-4.096 2.4576-7.7824 6.144-9.4208 3.6864-1.6384 7.9872-0.8192 11.0592 1.8432l18.8416 17.408c2.2528-28.8768 11.4688-56.7296 27.4432-83.3536 1.8432-3.072 5.12-4.9152 8.8064-4.9152 3.6864 0 6.9632 1.8432 8.8064 4.9152 15.9744 26.624 25.1904 54.4768 27.4432 83.3536l18.8416-17.408c3.072-2.8672 7.3728-3.4816 11.0592-1.8432 3.6864 1.6384 6.144 5.3248 6.144 9.4208V839.68c0 18.2272-14.7456 32.9728-32.9728 32.9728z m-91.136-74.752V839.68c0 6.9632 5.5296 12.4928 12.4928 12.4928h78.6432c6.9632 0 12.4928-5.5296 12.4928-12.4928v-41.7792l-18.2272 16.9984c-3.072 2.8672-7.3728 3.4816-11.0592 1.8432-3.6864-1.6384-6.144-5.3248-6.144-9.4208v-8.8064c0-24.1664-5.5296-47.9232-16.384-70.656-10.8544 22.7328-16.384 46.4896-16.384 70.656v8.8064c0 4.096-2.4576 7.7824-6.144 9.4208-3.6864 1.6384-7.9872 0.8192-11.0592-1.8432l-18.2272-16.9984z" fill="#1C1D21" p-id="1147"></path><path d="M489.2672 872.6528h-78.6432c-18.2272 0-32.9728-14.7456-32.9728-32.9728v-65.3312c0-4.096 2.4576-7.7824 6.144-9.4208 3.6864-1.6384 7.9872-0.8192 11.0592 1.8432l18.8416 17.408c2.2528-28.8768 11.4688-56.7296 27.4432-83.3536 1.8432-3.072 5.12-4.9152 8.8064-4.9152 3.6864 0 6.9632 1.8432 8.8064 4.9152 15.9744 26.624 25.1904 54.4768 27.4432 83.3536l18.8416-17.408c3.072-2.8672 7.3728-3.4816 11.0592-1.8432 3.6864 1.6384 6.144 5.3248 6.144 9.4208V839.68c0 18.2272-14.7456 32.9728-32.9728 32.9728z m-90.9312-74.752V839.68c0 6.9632 5.5296 12.4928 12.4928 12.4928H489.472c6.9632 0 12.4928-5.5296 12.4928-12.4928v-41.7792l-18.2272 16.9984c-3.072 2.8672-7.3728 3.4816-11.0592 1.8432-3.6864-1.6384-6.144-5.3248-6.144-9.4208v-8.8064c0-24.1664-5.5296-47.9232-16.384-70.656-10.8544 22.7328-16.384 46.4896-16.384 70.656v8.8064c0 4.096-2.4576 7.7824-6.144 9.4208-3.6864 1.6384-7.9872 0.8192-11.0592-1.8432l-18.2272-16.9984z" fill="#1C1D21" p-id="1148"></path><path d="M613.376 872.6528h-78.6432c-18.2272 0-32.9728-14.7456-32.9728-32.9728v-65.3312c0-4.096 2.4576-7.7824 6.144-9.4208 3.6864-1.6384 7.9872-0.8192 11.0592 1.8432l18.8416 17.408c2.2528-28.8768 11.4688-56.7296 27.4432-83.3536 1.8432-3.072 5.12-4.9152 8.8064-4.9152 3.6864 0 6.9632 1.8432 8.8064 4.9152 15.9744 26.624 25.1904 54.4768 27.4432 83.3536l18.8416-17.408c3.072-2.8672 7.3728-3.4816 11.0592-1.8432 3.6864 1.6384 6.144 5.3248 6.144 9.4208V839.68c-0.2048 18.2272-14.9504 32.9728-32.9728 32.9728zM522.24 797.9008V839.68c0 6.9632 5.5296 12.4928 12.4928 12.4928h78.6432c6.9632 0 12.4928-5.5296 12.4928-12.4928v-41.7792l-18.2272 16.9984c-3.072 2.8672-7.3728 3.4816-11.0592 1.8432-3.6864-1.6384-6.144-5.3248-6.144-9.4208v-8.8064c0-24.1664-5.5296-47.9232-16.384-70.656-10.8544 22.7328-16.384 46.4896-16.384 70.656v8.8064c0 4.096-2.4576 7.7824-6.144 9.4208-3.6864 1.6384-7.9872 0.8192-11.0592-1.8432l-18.2272-16.9984z" fill="#1C1D21" p-id="1149"></path><path d="M737.28 872.6528h-78.6432c-18.2272 0-32.9728-14.7456-32.9728-32.9728v-65.3312c0-4.096 2.4576-7.7824 6.144-9.4208 3.6864-1.6384 7.9872-0.8192 11.0592 1.8432l18.8416 17.408c2.2528-28.8768 11.4688-56.7296 27.4432-83.3536 1.8432-3.072 5.12-4.9152 8.8064-4.9152 3.6864 0 6.9632 1.8432 8.8064 4.9152 15.9744 26.624 25.1904 54.4768 27.4432 83.3536l18.8416-17.408c3.072-2.8672 7.3728-3.4816 11.0592-1.8432 3.6864 1.6384 6.144 5.3248 6.144 9.4208V839.68c0 18.2272-14.7456 32.9728-32.9728 32.9728z m-91.136-74.752V839.68c0 6.9632 5.5296 12.4928 12.4928 12.4928H737.28c6.9632 0 12.4928-5.5296 12.4928-12.4928v-41.7792l-18.2272 16.9984c-3.072 2.8672-7.3728 3.4816-11.0592 1.8432-3.6864-1.6384-6.144-5.3248-6.144-9.4208v-8.8064c0-24.1664-5.5296-47.9232-16.384-70.656-10.8544 22.7328-16.384 46.4896-16.384 70.656v8.8064c0 4.096-2.4576 7.7824-6.144 9.4208-3.6864 1.6384-7.9872 0.8192-11.0592-1.8432l-18.2272-16.9984z" fill="#1C1D21" p-id="1150"></path><path d="M871.2192 862.208H152.7808c91.136 93.3888 218.3168 151.552 359.2192 151.552s268.0832-57.9584 359.2192-151.552z" fill="#0ABFB2" p-id="1151"></path><path d="M512 1024c-70.2464 0-138.24-13.9264-202.3424-41.5744-61.8496-26.624-117.1456-64.7168-164.2496-113.0496-2.8672-2.8672-3.6864-7.3728-2.048-11.0592 1.6384-3.8912 5.3248-6.3488 9.4208-6.3488h718.4384c4.096 0 7.7824 2.4576 9.4208 6.3488 1.6384 3.8912 0.8192 8.192-2.048 11.0592-47.104 48.3328-102.4 86.4256-164.2496 113.0496-64.1024 27.648-132.096 41.5744-202.3424 41.5744zM177.9712 872.448c91.136 84.5824 208.6912 131.072 334.0288 131.072s242.8928-46.2848 334.0288-131.072H177.9712z" fill="#1C1D21" p-id="1152"></path><path d="M883.9168 791.3472v-16.7936l-35.4304 32.768v-8.8064c0-31.744-9.0112-63.0784-26.624-92.16-17.6128 29.0816-26.624 60.416-26.624 92.16v8.8064l-35.4304-32.768v65.3312c0 12.4928 10.24 22.7328 22.7328 22.7328h78.6432c12.4928 0 22.7328-10.24 22.7328-22.7328v-48.5376z" fill="#FF8939" p-id="1153"></path><path d="M848.4864 806.912v-8.3968c0-31.744-9.0112-63.0784-26.624-92.16-17.6128 29.0816-26.624 60.416-26.624 92.16v8.3968h53.248z" fill="#FF3E63" p-id="1154"></path><path d="M861.184 872.6528h-78.6432c-18.2272 0-32.9728-14.7456-32.9728-32.9728v-65.3312c0-4.096 2.4576-7.7824 6.144-9.4208 3.6864-1.6384 7.9872-0.8192 11.0592 1.8432l18.8416 17.408c2.2528-28.8768 11.4688-56.7296 27.4432-83.3536 1.8432-3.072 5.12-4.9152 8.8064-4.9152 3.6864 0 6.9632 1.8432 8.8064 4.9152 15.9744 26.624 25.1904 54.4768 27.4432 83.3536l18.8416-17.408c3.072-2.8672 7.3728-3.4816 11.0592-1.8432 3.6864 1.6384 6.144 5.3248 6.144 9.4208V839.68c0 18.2272-14.7456 32.9728-32.9728 32.9728z m-90.9312-74.752V839.68c0 6.9632 5.5296 12.4928 12.4928 12.4928h78.6432c6.9632 0 12.4928-5.5296 12.4928-12.4928v-41.7792l-18.2272 16.9984c-3.072 2.8672-7.3728 3.4816-11.0592 1.8432-3.6864-1.6384-6.144-5.3248-6.144-9.4208v-8.8064c0-24.1664-5.5296-47.9232-16.384-70.656-10.8544 22.7328-16.384 46.4896-16.384 70.656v8.8064c0 4.096-2.4576 7.7824-6.144 9.4208-3.6864 1.6384-7.9872 0.8192-11.0592-1.8432l-18.2272-16.9984z" fill="#1C1D21" p-id="1155"></path><path d="M509.5424 230.8096c-1.2288 0-2.6624-0.2048-3.8912-0.8192-5.3248-2.048-7.7824-7.9872-5.7344-13.312 0.8192-2.048 1.6384-4.3008 2.6624-6.3488 2.2528-5.12 8.192-7.5776 13.312-5.5296 5.12 2.2528 7.5776 8.192 5.5296 13.312l-2.4576 6.144c-1.6384 4.096-5.5296 6.5536-9.4208 6.5536zM482.0992 370.0736c-5.7344 0-10.24-4.5056-10.24-10.24 0-34.2016 4.7104-68.4032 14.1312-101.7856 1.4336-5.5296 7.168-8.6016 12.6976-7.168 5.5296 1.4336 8.6016 7.168 7.168 12.6976-8.8064 31.5392-13.312 63.8976-13.312 96.256-0.2048 5.7344-4.9152 10.24-10.4448 10.24z" fill="#FFAEC3" p-id="1156"></path><path d="M492.3392 343.2448c-2.8672-13.1072-8.3968-26.2144-16.1792-38.5024-2.6624 18.2272-4.096 36.6592-4.096 55.0912 0 2.6624 1.024 5.12 2.6624 6.9632 1.8432 2.048 4.5056 3.2768 7.5776 3.2768s5.7344-1.2288 7.5776-3.2768c1.6384-1.8432 2.6624-4.3008 2.6624-6.9632 0-6.3488 0.2048-12.6976 0.6144-19.0464-0.4096 0.8192-0.8192 1.6384-0.8192 2.4576z" fill="#FFC9A4" p-id="1157"></path></svg>